<?xml version="1.0" encoding="utf-8" standalone="no"?>
<!DOCTYPE svg PUBLIC "-//W3C//DTD SVG 1.1//EN"
  "http://www.w3.org/Graphics/SVG/1.1/DTD/svg11.dtd">
<svg xmlns:xlink="http://www.w3.org/1999/xlink" width="416.16pt" height="250.02pt" viewBox="0 0 416.16 250.02" xmlns="http://www.w3.org/2000/svg" version="1.1">
 <metadata>
  <rdf:RDF xmlns:dc="http://purl.org/dc/elements/1.1/" xmlns:cc="http://creativecommons.org/ns#" xmlns:rdf="http://www.w3.org/1999/02/22-rdf-syntax-ns#">
   <cc:Work>
    <dc:type rdf:resource="http://purl.org/dc/dcmitype/StillImage"/>
    <dc:date>2026-07-15T22:01:28.258192</dc:date>
    <dc:format>image/svg+xml</dc:format>
    <dc:creator>
     <cc:Agent>
      <dc:title>Matplotlib v3.10.8, https://matplotlib.org/</dc:title>
     </cc:Agent>
    </dc:creator>
   </cc:Work>
  </rdf:RDF>
 </metadata>
 <defs>
  <style type="text/css">*{stroke-linejoin: round; stroke-linecap: butt}</style>
 </defs>
 <g id="figure_1">
  <g id="patch_1">
   <path d="M 0 250.02 
L 416.16 250.02 
L 416.16 0 
L 0 0 
z
" style="fill: #ffffff"/>
  </g>
  <g id="axes_1">
   <g id="patch_2">
    <path d="M 21.2616 90.13824 
L 103.6224 90.13824 
Q 108.44352 90.13824 108.44352 87.3108 
L 108.44352 47.2554 
Q 108.44352 44.42796 103.6224 44.42796 
L 21.2616 44.42796 
Q 16.44048 44.42796 16.44048 47.2554 
L 16.44048 87.3108 
Q 16.44048 90.13824 21.2616 90.13824 
z
" clip-path="url(#p3c14f9504f)" style="fill: #dce9f8; stroke: #334155; stroke-linejoin: miter"/>
   </g>
   <g id="patch_3">
    <path d="M 118.88928 90.13824 
L 201.25008 90.13824 
Q 206.0712 90.13824 206.0712 87.3108 
L 206.0712 47.2554 
Q 206.0712 44.42796 201.25008 44.42796 
L 118.88928 44.42796 
Q 114.06816 44.42796 114.06816 47.2554 
L 114.06816 87.3108 
Q 114.06816 90.13824 118.88928 90.13824 
z
" clip-path="url(#p3c14f9504f)" style="fill: #dff1ea; stroke: #334155; stroke-linejoin: miter"/>
   </g>
   <g id="patch_4">
    <path d="M 216.91872 90.13824 
L 299.27952 90.13824 
Q 304.10064 90.13824 304.10064 87.3108 
L 304.10064 47.2554 
Q 304.10064 44.42796 299.27952 44.42796 
L 216.91872 44.42796 
Q 212.0976 44.42796 212.0976 47.2554 
L 212.0976 87.3108 
Q 212.0976 90.13824 216.91872 90.13824 
z
" clip-path="url(#p3c14f9504f)" style="fill: #f6ebcc; stroke: #334155; stroke-linejoin: miter"/>
   </g>
   <g id="patch_5">
    <path d="M 118.88928 160.82424 
L 201.25008 160.82424 
Q 206.0712 160.82424 206.0712 157.9968 
L 206.0712 117.9414 
Q 206.0712 115.11396 201.25008 115.11396 
L 118.88928 115.11396 
Q 114.06816 115.11396 114.06816 117.9414 
L 114.06816 157.9968 
Q 114.06816 160.82424 118.88928 160.82424 
z
" clip-path="url(#p3c14f9504f)" style="fill: #e9e3f5; stroke: #334155; stroke-linejoin: miter"/>
   </g>
   <g id="patch_6">
    <path d="M 216.91872 160.82424 
L 299.27952 160.82424 
Q 304.10064 160.82424 304.10064 157.9968 
L 304.10064 117.9414 
Q 304.10064 115.11396 299.27952 115.11396 
L 216.91872 115.11396 
Q 212.0976 115.11396 212.0976 117.9414 
L 212.0976 157.9968 
Q 212.0976 160.82424 216.91872 160.82424 
z
" clip-path="url(#p3c14f9504f)" style="fill: #f6dfeb; stroke: #334155; stroke-linejoin: miter"/>
   </g>
   <g id="patch_7">
    <path d="M 314.5464 160.82424 
L 396.9072 160.82424 
Q 401.72832 160.82424 401.72832 157.9968 
L 401.72832 117.9414 
Q 401.72832 115.11396 396.9072 115.11396 
L 314.5464 115.11396 
Q 309.72528 115.11396 309.72528 117.9414 
L 309.72528 157.9968 
Q 309.72528 160.82424 314.5464 160.82424 
z
" clip-path="url(#p3c14f9504f)" style="fill: #f3e7d6; stroke: #334155; stroke-linejoin: miter"/>
   </g>
   <g id="patch_8">
    <path d="M 216.91872 226.79784 
L 299.27952 226.79784 
Q 304.10064 226.79784 304.10064 223.9704 
L 304.10064 183.915 
Q 304.10064 181.08756 299.27952 181.08756 
L 216.91872 181.08756 
Q 212.0976 181.08756 212.0976 183.915 
L 212.0976 223.9704 
Q 212.0976 226.79784 216.91872 226.79784 
z
" clip-path="url(#p3c14f9504f)" style="fill: #d8f1ee; stroke: #334155; stroke-linejoin: miter"/>
   </g>
   <g id="patch_9">
    <path d="M 314.5464 226.79784 
L 396.9072 226.79784 
Q 401.72832 226.79784 401.72832 223.9704 
L 401.72832 183.915 
Q 401.72832 181.08756 396.9072 181.08756 
L 314.5464 181.08756 
Q 309.72528 181.08756 309.72528 183.915 
L 309.72528 223.9704 
Q 309.72528 226.79784 314.5464 226.79784 
z
" clip-path="url(#p3c14f9504f)" style="fill: #eef0f3; stroke: #334155; stroke-linejoin: miter"/>
   </g>
   <g id="patch_10">
    <path d="M 105.623942 67.2831 
Q 111.2575 67.2831 115.60532 67.2831 
" clip-path="url(#p3c14f9504f)" style="fill: none; stroke: #475569; stroke-width: 1.15; stroke-linecap: round"/>
    <path d="M 111.20532 65.0831 
L 115.60532 67.2831 
L 111.20532 69.4831 
z
" clip-path="url(#p3c14f9504f)" style="fill: #475569; stroke: #475569; stroke-width: 1.15; stroke-linecap: round"/>
   </g>
   <g id="patch_11">
    <path d="M 203.250739 67.2831 
Q 209.085325 67.2831 213.634172 67.2831 
" clip-path="url(#p3c14f9504f)" style="fill: none; stroke: #475569; stroke-width: 1.15; stroke-linecap: round"/>
    <path d="M 209.234172 65.0831 
L 213.634172 67.2831 
L 209.234172 69.4831 
z
" clip-path="url(#p3c14f9504f)" style="fill: #475569; stroke: #475569; stroke-width: 1.15; stroke-linecap: round"/>
   </g>
   <g id="patch_12">
    <path d="M 256.307667 87.516313 
Q 210.579993 92.452655 172.693329 116.18823 
" clip-path="url(#p3c14f9504f)" style="fill: none; stroke: #475569; stroke-width: 1.15; stroke-linecap: round"/>
    <path d="M 177.590018 115.716591 
L 172.693329 116.18823 
L 175.254032 111.987896 
z
" clip-path="url(#p3c14f9504f)" style="fill: #475569; stroke: #475569; stroke-width: 1.15; stroke-linecap: round"/>
   </g>
   <g id="patch_13">
    <path d="M 203.250739 137.9691 
Q 209.085325 137.9691 213.634172 137.9691 
" clip-path="url(#p3c14f9504f)" style="fill: none; stroke: #475569; stroke-width: 1.15; stroke-linecap: round"/>
    <path d="M 209.234172 135.7691 
L 213.634172 137.9691 
L 209.234172 140.1691 
z
" clip-path="url(#p3c14f9504f)" style="fill: #475569; stroke: #475569; stroke-width: 1.15; stroke-linecap: round"/>
   </g>
   <g id="patch_14">
    <path d="M 301.281062 137.9691 
Q 306.91462 137.9691 311.26244 137.9691 
" clip-path="url(#p3c14f9504f)" style="fill: none; stroke: #475569; stroke-width: 1.15; stroke-linecap: round"/>
    <path d="M 306.86244 135.7691 
L 311.26244 137.9691 
L 306.86244 140.1691 
z
" clip-path="url(#p3c14f9504f)" style="fill: #475569; stroke: #475569; stroke-width: 1.15; stroke-linecap: round"/>
   </g>
   <g id="patch_15">
    <path d="M 258.3 159.999512 
Q 258.3 170.957372 258.3 180.629492 
" clip-path="url(#p3c14f9504f)" style="fill: none; stroke: #475569; stroke-width: 1.15; stroke-linecap: round"/>
    <path d="M 260.5 176.229492 
L 258.3 180.629492 
L 256.1 176.229492 
z
" clip-path="url(#p3c14f9504f)" style="fill: #475569; stroke: #475569; stroke-width: 1.15; stroke-linecap: round"/>
   </g>
   <g id="patch_16">
    <path d="M 301.281062 203.9427 
Q 306.91462 203.9427 311.26244 203.9427 
" clip-path="url(#p3c14f9504f)" style="fill: none; stroke: #475569; stroke-width: 1.15; stroke-linecap: round"/>
    <path d="M 306.86244 201.7427 
L 311.26244 203.9427 
L 306.86244 206.1427 
z
" clip-path="url(#p3c14f9504f)" style="fill: #475569; stroke: #475569; stroke-width: 1.15; stroke-linecap: round"/>
   </g>
   <g id="text_1">
    <text style="font-weight: 700; font-size: 11px; font-family: 'Arial', 'Helvetica', 'DejaVu Sans', sans-serif; text-anchor: middle; fill: #111827" x="208.08" y="23.320294" transform="rotate(-0 208.08 23.320294)">Deterministic simulator-in-the-loop corner calibration</text>
   </g>
   <g id="text_2">
    <text style="font-size: 7.2px; font-family: 'Arial', 'Helvetica', 'DejaVu Sans', sans-serif; text-anchor: middle; fill: #4b5563" x="208.08" y="32.469075" transform="rotate(-0 208.08 32.469075)">Validation labels remain hidden from acquisition; every selected support point launches ngspice</text>
   </g>
   <g id="text_3">
    <text style="font-weight: 700; font-size: 6.8px; font-family: 'Arial', 'Helvetica', 'DejaVu Sans', sans-serif; text-anchor: middle; fill: #172033" x="62.442" y="60.230412" transform="rotate(-0 62.442 60.230412)">Configuration audit</text>
   </g>
   <g id="text_4">
    <text style="font-size: 5.45px; font-family: 'Arial', 'Helvetica', 'DejaVu Sans', sans-serif; fill: #374151" transform="translate(32.455504 69.461861)">GF180MCU / ngspice 46</text>
    <text style="font-size: 5.45px; font-family: 'Arial', 'Helvetica', 'DejaVu Sans', sans-serif; fill: #374151" transform="translate(27.961809 75.134085)">statistical switches forced off</text>
    <text style="font-size: 5.45px; font-family: 'Arial', 'Helvetica', 'DejaVu Sans', sans-serif; fill: #374151" transform="translate(26.088371 80.742442)">model, netlist and log retained</text>
   </g>
   <g id="text_5">
    <text style="font-weight: 700; font-size: 6.8px; font-family: 'Arial', 'Helvetica', 'DejaVu Sans', sans-serif; text-anchor: middle; fill: #172033" x="160.06968" y="60.275037" transform="rotate(-0 160.06968 60.275037)">Independent SPICE sets</text>
   </g>
   <g id="text_6">
    <text style="font-size: 5.45px; font-family: 'Arial', 'Helvetica', 'DejaVu Sans', sans-serif; fill: #374151" transform="translate(138.113844 69.468674)">Primary: 320 rows</text>
    <text style="font-size: 5.45px; font-family: 'Arial', 'Helvetica', 'DejaVu Sans', sans-serif; fill: #374151" transform="translate(135.73245 75.140898)">Validation: 480 rows</text>
    <text style="font-size: 5.45px; font-family: 'Arial', 'Helvetica', 'DejaVu Sans', sans-serif; fill: #374151" transform="translate(122.459145 80.749254)">INV, NAND2, NOR2 and XOR2</text>
   </g>
   <g id="text_7">
    <text style="font-weight: 700; font-size: 6.8px; font-family: 'Arial', 'Helvetica', 'DejaVu Sans', sans-serif; text-anchor: middle; fill: #172033" x="258.09912" y="60.233599" transform="rotate(-0 258.09912 60.233599)">Unseen-corner setup</text>
   </g>
   <g id="text_8">
    <text style="font-size: 5.45px; font-family: 'Arial', 'Helvetica', 'DejaVu Sans', sans-serif; fill: #374151" transform="translate(223.067542 69.422059)">Train on two process corners</text>
    <text style="font-size: 5.45px; font-family: 'Arial', 'Helvetica', 'DejaVu Sans', sans-serif; fill: #374151" transform="translate(225.985847 75.107465)">96 feature-only candidates</text>
    <text style="font-size: 5.45px; font-family: 'Arial', 'Helvetica', 'DejaVu Sans', sans-serif; fill: #374151" transform="translate(232.349573 80.779689)">in the held-out corner</text>
   </g>
   <g id="text_9">
    <text style="font-weight: 700; font-size: 6.8px; font-family: 'Arial', 'Helvetica', 'DejaVu Sans', sans-serif; text-anchor: middle; fill: #172033" x="160.06968" y="130.919599" transform="rotate(-0 160.06968 130.919599)">Validation-blind selection</text>
   </g>
   <g id="text_10">
    <text style="font-size: 5.45px; font-family: 'Arial', 'Helvetica', 'DejaVu Sans', sans-serif; fill: #374151" transform="translate(136.443504 140.076126)">Four-query batches</text>
    <text style="font-size: 5.45px; font-family: 'Arial', 'Helvetica', 'DejaVu Sans', sans-serif; fill: #374151" transform="translate(139.317102 145.748349)">one point per cell</text>
    <text style="font-size: 5.45px; font-family: 'Arial', 'Helvetica', 'DejaVu Sans', sans-serif; fill: #374151" transform="translate(119.178926 151.433755)">maximize feature-space coverage</text>
   </g>
   <g id="text_11">
    <text style="font-weight: 700; font-size: 6.8px; font-family: 'Arial', 'Helvetica', 'DejaVu Sans', sans-serif; text-anchor: middle; fill: #172033" x="258.09912" y="130.916412" transform="rotate(-0 258.09912 130.916412)">SPICE query and update</text>
   </g>
   <g id="text_12">
    <text style="font-size: 5.45px; font-family: 'Arial', 'Helvetica', 'DejaVu Sans', sans-serif; fill: #374151" transform="translate(217.657991 140.147861)">Launch ngspice for selected rows</text>
    <text style="font-size: 5.45px; font-family: 'Arial', 'Helvetica', 'DejaVu Sans', sans-serif; fill: #374151" transform="translate(215.380913 145.820085)">append measured delay and power</text>
    <text style="font-size: 5.45px; font-family: 'Arial', 'Helvetica', 'DejaVu Sans', sans-serif; fill: #374151" transform="translate(227.807339 151.492309)">retrain the support model</text>
   </g>
   <g id="text_13">
    <text style="font-weight: 700; font-size: 6.8px; font-family: 'Arial', 'Helvetica', 'DejaVu Sans', sans-serif; text-anchor: middle; fill: #172033" x="355.7268" y="130.919599" transform="rotate(-0 355.7268 130.919599)">Independent evaluation</text>
   </g>
   <g id="text_14">
    <text style="font-size: 5.45px; font-family: 'Arial', 'Helvetica', 'DejaVu Sans', sans-serif; fill: #374151" transform="translate(320.936214 140.11465)">Validation set used only here</text>
    <text style="font-size: 5.45px; font-family: 'Arial', 'Helvetica', 'DejaVu Sans', sans-serif; fill: #374151" transform="translate(331.94862 145.786874)">5 seeds x 3 corners</text>
    <text style="font-size: 5.45px; font-family: 'Arial', 'Helvetica', 'DejaVu Sans', sans-serif; fill: #374151" transform="translate(316.798898 151.395231)">compare budgets and strategies</text>
   </g>
   <g id="text_15">
    <text style="font-weight: 700; font-size: 6.8px; font-family: 'Arial', 'Helvetica', 'DejaVu Sans', sans-serif; text-anchor: middle; fill: #172033" x="258.09912" y="196.934637" transform="rotate(-0 258.09912 196.934637)">96-point measured reference</text>
   </g>
   <g id="text_16">
    <text style="font-size: 5.45px; font-family: 'Arial', 'Helvetica', 'DejaVu Sans', sans-serif; fill: #374151" transform="translate(225.229659 206.11487)">Complete all 96 candidates</text>
    <text style="font-size: 5.45px; font-family: 'Arial', 'Helvetica', 'DejaVu Sans', sans-serif; fill: #374151" transform="translate(219.778808 211.800276)">quantify query and time savings</text>
    <text style="font-size: 5.45px; font-family: 'Arial', 'Helvetica', 'DejaVu Sans', sans-serif; fill: #374151" transform="translate(226.29028 217.4725)">audit repeated simulations</text>
   </g>
   <g id="text_17">
    <text style="font-weight: 700; font-size: 6.8px; font-family: 'Arial', 'Helvetica', 'DejaVu Sans', sans-serif; text-anchor: middle; fill: #172033" x="355.7268" y="196.890012" transform="rotate(-0 355.7268 196.890012)">Claim boundary</text>
   </g>
   <g id="text_18">
    <text style="font-size: 5.45px; font-family: 'Arial', 'Helvetica', 'DejaVu Sans', sans-serif; fill: #374151" transform="translate(316.957714 205.979267)">Early transistor-level exploration</text>
    <text style="font-size: 5.45px; font-family: 'Arial', 'Helvetica', 'DejaVu Sans', sans-serif; fill: #374151" transform="translate(322.150968 211.728541)">not layout-extracted sign-off</text>
    <text style="font-size: 5.45px; font-family: 'Arial', 'Helvetica', 'DejaVu Sans', sans-serif; fill: #374151" transform="translate(318.771542 217.477814)">not full Liberty characterization</text>
   </g>
   <g id="text_19">
    <text style="font-size: 6.8px; font-family: 'Arial', 'Helvetica', 'DejaVu Sans', sans-serif; text-anchor: middle; fill: #4b5563" x="208.08" y="233.142112" transform="rotate(-0 208.08 233.142112)">Online support labels come from fresh ngspice runs; validation labels never guide selection or stopping.</text>
   </g>
  </g>
 </g>
 <defs>
  <clipPath id="p3c14f9504f">
   <rect x="7.2" y="7.2" width="401.76" height="235.62"/>
  </clipPath>
 </defs>
</svg>
